HIERARCHY
ROOT simHips
{
  OFFSET 86.6867 99.8517 -5.91809
  CHANNELS 6 Xposition Yposition Zposition Zrotation Xrotation Yrotation
  JOINT simSpine
  {
    OFFSET -0.000355721 21.3001 -0.016921
    CHANNELS 3 Zrotation Xrotation Yrotation
    JOINT simLeftArm
    {
      OFFSET 13.5181 21.3012 0
      CHANNELS 3 Zrotation Xrotation Yrotation
      JOINT simLeftForeArm
      {
        OFFSET 24.5783 0 0
        CHANNELS 3 Zrotation Xrotation Yrotation
        JOINT simLeftHand
        {
          OFFSET 24.5783 0 0
          CHANNELS 3 Zrotation Xrotation Yrotation
          End Site
          {
            OFFSET 7.32568 1.52588e-05 0.0169305
          }
        }
      }
    }
    JOINT simHead
    {
      OFFSET 0 27.4458 -0.00489235
      CHANNELS 3 Zrotation Xrotation Yrotation
      End Site
      {
        OFFSET 0 0 0
      }
    }
    JOINT simRightArm
    {
      OFFSET -13.5174 21.3012 0
      CHANNELS 3 Zrotation Xrotation Yrotation
      JOINT simRightForeArm
      {
        OFFSET -24.5783 0 0
        CHANNELS 3 Zrotation Xrotation Yrotation
        JOINT simRightHand
        {
          OFFSET -24.5783 0 0
          CHANNELS 3 Zrotation Xrotation Yrotation
          End Site
          {
            OFFSET -7.32568 1.52588e-05 0.0169305
          }
        }
      }
    }
  }
  JOINT simRightUpLeg
  {
    OFFSET -8.44614 -9.41038 0.835684
    CHANNELS 3 Zrotation Xrotation Yrotation
    JOINT simRightLeg
    {
      OFFSET 0 -40.9639 0
      CHANNELS 3 Zrotation Xrotation Yrotation
      JOINT simRightFoot
      {
        OFFSET 0 -40.9639 0
        CHANNELS 3 Zrotation Xrotation Yrotation
        End Site
        {
          OFFSET 0.50614 -9.67405 14.6709
        }
      }
    }
  }
  JOINT simLeftUpLeg
  {
    OFFSET 8.44614 -9.41038 0.835684
    CHANNELS 3 Zrotation Xrotation Yrotation
    JOINT simLeftLeg
    {
      OFFSET 0 -40.9639 0
      CHANNELS 3 Zrotation Xrotation Yrotation
      JOINT simLeftFoot
      {
        OFFSET 0 -40.9639 0
        CHANNELS 3 Zrotation Xrotation Yrotation
        End Site
        {
          OFFSET -0.50614 -9.67405 14.6709
        }
      }
    }
  }
}
MOTION
Frames:	29
Frame Time:	0.0333333
128.442 67.045 48.2348 -23.3355 1.45558 -93.0857 -13.9212 27.2224 -22.5557 -57.9085 5.17004 37.5278 26.476 -10.5085 -80.8208 53.6131 -15.2829 45.0435 -2.8744 3.22534 18.2292 82.0656 5.12268 -55.5952 -26.2183 -30.5776 95.4711 10.1081 -45.8711 11.4491 -41.7262 -10.778 18.1766 12.5683 60.4629 -6.57312 40.5853 -25.1652 15.3583 57.1474 -19.6083 21.0421 -107.417 68.4739 86.0241 -2.59475 -26.3049 -5.38078 
124.417 69.4561 48.6803 -21.438 3.4985 -91.9974 -11.8601 17.9989 -18.3476 -75.7012 -13.207 49.2687 26.993 -11.5127 -83.6838 47.3091 -12.909 42.4348 14.1962 -24.3599 11.9098 81.7331 5.04245 -56.8648 -26.4258 -26.0347 85.4439 4.71529 -46.5329 8.72245 -41.2941 -3.46647 14.3936 8.78912 50.9793 -3.2657 42.1662 -23.1614 17.7633 57.5401 -18.1179 19.7499 -101.705 68.9804 80.678 -4.29395 -27.3163 -3.98558 
120.363 73.4817 49.682 -17.6298 6.11978 -91.3116 -9.58382 4.84048 -8.68921 -77.3894 -24.8835 55.4077 26.7143 -10.9564 -82.1066 47.2872 -16.556 48.0943 24.1537 -59.409 12.3358 82.5213 7.68403 -52.1346 -24.4225 -17.3463 66.6839 -2.38685 -45.4997 2.26939 -38.7979 4.43774 9.50602 5.14784 36.0767 -0.754135 37.7133 -18.9456 15.7602 55.877 -16.8906 17.7914 -86.793 69.3658 66.6819 -6.44647 -28.876 -3.07965 
117.549 77.4586 50.9078 -15.7285 8.70728 -90.1851 -5.58711 -3.73152 4.99637 -67.0221 -21.5207 54.8404 27.7961 -13.3787 -88.8399 38.5809 -19.5123 44.4634 -133.911 -84.6644 -132.25 83.4881 10.7145 -43.577 -21.2503 -11.6136 53.2498 -17.0269 -59.3961 -14.8309 -33.8815 12.7709 6.73681 2.08532 21.8281 0.261441 26.7348 -14.3939 8.96121 52.449 -16.6627 12.5765 -71.7603 68.4122 52.5903 -8.47133 -29.2567 0.441756 
115.963 80.0572 51.8079 -17.9757 10.567 -89.3779 -3.21838 -9.54937 17.7767 -53.2596 -15.3997 42.0258 28.632 -16.0901 -96.08 38.2967 -21.5784 43.1891 -152.984 -70.4115 -137.068 78.4024 15.9502 -30.6652 -20.6412 -10.79 51.1498 -12.141 -54.0523 -8.33601 -30.5857 18.2469 4.86906 1.76018 18.7968 0.273413 22.7742 -9.58215 5.03138 49.973 -15.1378 5.95493 -66.985 67.784 48.141 -10.351 -26.8732 5.09458 
115.191 80.5842 52.5545 -25.2001 11.0314 -89.4889 -1.48809 -10.5335 28.111 -48.689 -14.053 17.2153 28.5201 -15.6452 -94.9062 38.1328 -21.6744 38.8092 -160.33 -75.048 -140.038 61.5743 23.7452 -12.989 -22.1656 -12.9784 56.6127 -4.90212 -46.2244 2.39305 -32.05 22.146 3.63411 3.15503 26.807 -0.144961 23.8571 -8.38671 6.54478 49.0129 -11.3466 -0.468906 -76.3174 68.8286 56.8846 -10.8767 -21.155 9.58621 
114.819 79.8997 52.4412 -33.3387 8.97184 -87.1668 -3.01373 -8.30465 33.9671 -52.4718 -9.33461 -7.51183 27.5941 -12.8639 -87.4356 38.0728 -18.7955 32.5577 -158.237 -82.7571 -135.895 38.209 23.3208 4.0038 -23.5104 -15.2353 61.9272 -3.12423 -42.8617 6.56562 -36.0749 25.7301 2.92689 5.74065 37.9101 -1.53913 22.9964 -8.92748 -1.03764 49.616 -11.5521 -3.09149 -93.7385 69.3002 73.3619 -8.99035 -8.74009 16.1333 
114.865 78.1589 51.939 -39.127 6.41987 -83.3079 -5.01732 -5.42036 35.334 -55.3179 1.07756 -22.6157 26.1899 -9.99978 -79.3415 38.9834 -17.0808 33.9599 -88.0315 -83.6668 -60.8458 20.8607 18.8779 12.0363 -24.6502 -17.91 67.9352 -1.52546 -41.8013 9.49335 -37.6851 26.2669 3.29441 8.4972 49.9888 -3.72192 19.3033 -10.0212 -11.4264 52.5553 -16.4616 1.78794 -106.721 68.4669 85.7543 -5.0519 6.10819 29.2371 
114.595 75.9857 51.5026 -44.4623 4.58102 -79.8492 -6.43232 -2.50543 32.2053 -51.3318 12.6289 -23.7043 25.1081 -8.30827 -74.2471 34.9942 -14.7985 32.2629 -43.5453 -73.0356 -11.0684 10.5326 18.1254 17.1283 -25.4595 -20.3271 73.1955 2.734 -44.9574 12.7119 -37.7045 27.4412 7.51915 11.2592 57.8672 -6.18785 13.5369 -9.05288 -14.5936 56.2403 -17.6649 10.5262 -109.812 68.0999 88.6385 -6.58749 6.1469 25.6696 
113.841 73.5992 51.6776 -49.6172 3.62205 -77.7402 -6.32798 -1.2263 23.6163 -47.0442 21.8843 -12.4564 23.9891 -6.84398 -69.5576 29.7116 -5.54353 24.4925 -30.7669 -48.1976 9.40095 7.42156 21.1156 27.0108 -25.5121 -20.5145 73.5999 7.51511 -41.2515 16.8348 -38.8001 29.5686 13.6317 13.6584 62.5956 -8.23125 15.7893 -6.72996 -13.9688 56.0653 -13.2702 22.1756 -105.789 68.5835 85.1635 11.8441 6.09822 8.91603 
114.03 71.55 52.5564 -49.3175 5.42175 -75.0633 -4.98414 -5.2861 13.5357 -46.4296 30.9059 -0.472477 21.7132 -4.47466 -61.1468 25.8628 5.43442 19.324 -33.1175 -10.871 17.4445 10.108 23.9311 32.4481 -25.1129 -19.2038 70.7632 9.81534 -34.9756 19.3546 -37.7912 26.7401 11.9944 16.8071 67.0575 -11.0493 18.2239 -2.10803 -12.5587 57.3439 -13.9505 35.6502 -95.6506 69.2609 75.5315 9.44649 1.49191 -2.89609 
114.71 68.6809 53.868 -48.7061 8.85399 -71.4643 -2.33154 -10.4891 5.63592 -51.0914 33.1453 8.32429 18.4568 -2.03968 -50.6235 17.8788 11.8039 17.641 -33.7432 10.207 23.5108 15.0978 22.9897 28.779 -24.9163 -18.6326 69.5172 10.2144 -24.0668 21.644 -36.9854 23.7034 7.79059 20.4626 70.7114 -14.4646 19.004 2.43379 -8.98317 57.6628 -16.001 47.3857 -72.6475 68.4957 53.8749 5.29225 2.28205 -7.75471 
115.266 63.8263 55.288 -50.2504 13.0754 -67.3478 1.14367 -11.181 1.25678 -53.7834 26.1101 10.8421 16.2668 -0.8595 -44.1261 18.8232 4.13702 18.9638 -21.5244 24.2647 24.1795 18.5125 14.7685 19.2467 -24.5604 -17.6909 67.4471 10.8862 -23.5697 23.1467 -36.7763 22.1703 4.89195 25.6975 74.2614 -19.4399 18.0573 4.27032 -3.99238 58.0642 -18.9364 57.0784 -54.922 65.3669 37.4752 10.0919 -1.06159 -3.57084 
116.473 57.6921 56.1199 -50.0765 17.8438 -63.0073 2.79264 -10.7261 -0.724137 -52.9931 19.8055 11.0052 16.4361 -0.939486 -44.616 27.0832 -2.57888 22.5505 7.30609 24.6466 15.1208 18.4646 2.30201 9.53892 -23.0519 -14.484 60.1842 9.69259 -31.0014 20.9234 -36.3629 17.8442 -1.82374 32.479 77.2089 -26.1632 14.593 3.97767 -6.1445 62.1694 -25.1736 65.6276 -47.5472 63.0179 30.4229 -8.64454 -2.39631 -3.31463 
118.133 49.9642 56.0871 -51.4754 20.9388 -59.6959 2.16954 -5.53049 -1.70639 -49.6223 14.406 10.2672 17.382 -1.42028 -47.3894 31.2136 -0.267502 25.2267 35.6835 10.0085 10.7148 14.9598 -10.592 4.54437 -19.3912 -9.27178 47.1052 7.38411 -31.108 17.301 -37.5942 12.2333 -5.11742 49.5437 80.9076 -43.0553 11.6706 2.78279 -8.7268 64.6759 -30.2518 71.2364 -41.363 60.3439 24.7626 -21.3576 0.483347 -3.92155 
119.998 40.7654 55.5234 -55.3489 22.2095 -57.7088 1.09889 2.9007 -2.04675 -44.7373 11.9295 9.09183 16.8592 -1.14795 -45.8509 37.8004 -0.206961 26.4624 54.0202 -7.43005 13.8998 9.85695 -17.6404 2.37965 -14.1968 -4.67396 32.6167 1.75314 -30.2848 14.8549 -40.9739 6.77913 -2.33573 73.3139 82.7275 -66.2881 22.4433 -0.30404 -2.77858 67.5306 -32.9857 74.2861 -40.3786 59.7206 23.5915 -27.7095 0.775281 -4.38728 
121.977 31.3441 54.8748 -59.5528 23.2018 -55.0352 0.0149679 10.516 -3.00024 -38.119 12.0206 6.15536 14.6989 -0.19907 -39.6623 40.4747 -0.375257 26.3419 62.1133 -19.8505 14.467 5.19233 -19.1424 0.0322302 -10.0437 -2.33846 22.4785 -0.437682 -33.3562 12.7263 -42.1852 0.702585 3.45 120.525 81.8753 -112.905 29.0016 0.75684 3.84486 71.1628 -36.2468 78.5752 -45.2604 62.0978 28.072 -26.3339 -0.942236 -6.78096 
123.791 22.0556 54.5256 -64.1593 24.44 -50.7059 -0.516268 17.1546 -4.12056 -32.984 11.6358 -2.65963 11.5906 0.711478 -31.1158 45.4933 23.967 26.2808 60.2215 -22.5143 7.26616 2.68529 -19.3367 -3.16826 -8.79614 -1.81281 19.5738 -5.72126 -30.048 9.18678 -43.0766 -3.33909 7.67743 139.28 79.2646 -131.228 34.558 4.41764 9.43274 74.7093 -44.7844 85.189 -46.7725 62.7387 29.4706 -18.2983 0.735679 11.8023 
125.431 11.4574 54.6644 -83.3587 23.535 -47.343 6.3384 37.1541 3.98744 -35.8931 5.19889 -11.7518 19.6675 -2.83834 -54.3861 36.9412 -44.4159 21.6837 46.4173 -19.4405 0.585113 -2.03389 -23.5869 -8.91212 -10.2542 -2.43463 22.9742 -8.07768 -29.026 6.96209 -34.7884 -4.06795 22.4938 144.049 78.024 -135.815 34.9006 10.0116 14.6234 75.4482 -46.8656 70.4257 -49.9648 63.8607 32.1984 -24.8268 0.121969 9.28288 
126.841 7.77953 54.5294 -101.577 21.8037 -45.6861 5.2118 45.6345 10.696 -30.9452 8.12171 -36.1354 10.5633 0.907685 -28.3238 47.3812 -43.3927 29.0139 36.7661 7.79881 -3.82954 9.04851 -22.0456 -3.12967 -14.8234 -5.11533 34.2301 -10.0043 -26.5751 4.61223 -21.2883 0.0324774 32.589 148.367 76.6205 -140.117 29.1486 9.48589 18.5409 68.151 -42.4544 44.4033 -42.7825 61.0311 26.0549 -18.6993 7.9033 -12.2657 
129.022 8.94735 56.1341 -103.323 24.6342 -42.9177 -0.41561 32.4875 5.33093 -20.1851 14.1003 -41.1777 3.59767 0.908015 -9.80528 -178.132 -78.4713 179.268 27.6496 37.5327 -1.7727 30.7113 -10.9773 10.7165 -15.67 -5.7547 36.4566 -6.10208 -25.6285 12.5758 -21.6144 -6.20184 20.3103 150.957 75.6929 -143.195 11.7412 5.95357 16.4437 61.6769 -45.6616 36.7279 -31.7063 54.3524 16.6665 -17.7182 13.4963 1.05165 
131.28 9.77802 57.2435 -108.402 26.1767 -41.263 -3.3241 27.5619 9.92671 -24.9208 15.5734 -48.5593 0.732388 0.238502 -2.02939 36.6964 -83.9517 37.8099 9.23511 37.7111 6.46033 38.6943 3.43536 9.35059 -15.2453 -5.42802 35.3349 -8.15962 -27.1072 7.29181 -19.7515 -10.4583 8.71663 153.617 74.4636 -146.066 5.05398 0.897326 -6.1147 58.2556 -44.3177 34.3721 -27.4542 50.6811 13.2748 -13.7919 9.81598 8.7671 
134.407 10.3493 58.1494 -109.482 23.4263 -41.8669 -8.87984 32.687 11.2416 -32.7455 4.70388 -48.0726 1.27603 0.397221 -3.52115 -151.686 -85.778 -154.315 -12.5993 18.6779 22.6407 41.9646 11.2836 7.58942 -18.9133 -8.74403 45.6372 -2.58529 -27.4137 12.5809 -25.3064 -14.7459 2.26545 155.904 73.056 -148.394 4.57868 9.87894 -3.29796 48.88 -42.4032 33.419 -24.7454 47.8853 11.2821 -14.0721 11.5992 4.87644 
137.071 11.247 59.222 -112.383 22.5077 -41.6231 -10.9314 36.0438 15.2084 -29.8612 3.9823 -50.6133 2.36877 0.670503 -6.49405 -147.555 -83.697 -152.258 -21.5071 9.65241 24.8317 43.8046 17.1946 3.60643 -20.5438 -10.6632 50.8221 0.828747 -27.789 15.6111 -25.6455 -16.9835 0.628652 159.569 70.2994 -151.915 3.80247 12.431 2.03353 45.7492 -41.2573 35.7501 -24.2659 47.3235 11.0011 -18.2024 17.0231 1.97999 
139.326 11.8537 59.7407 -115.254 21.2162 -40.3297 -13.2846 39.083 18.1568 -28.5561 2.67872 -53.2045 3.49085 0.889962 -9.52043 -130.104 -87.0879 -136.505 -23.0577 12.3922 25.7858 47.0679 22.1295 5.85625 -19.4841 -9.3772 47.3943 -0.826058 -30.2973 12.1005 -25.2996 -17.3967 1.86349 163.061 66.6661 -155.182 3.25273 14.9807 -1.26633 43.8023 -41.8874 37.0314 -25.3575 48.5115 11.8072 -23.3521 18.8561 3.74922 
141.358 12.2221 60.0851 -117.019 21.079 -39.1493 -14.3442 41.2906 19.3693 -29.6034 -0.221721 -55.2215 4.58983 1.04583 -12.4621 -123.836 -86.2543 -130.709 -26.9084 18.9586 28.7782 49.5633 24.8313 10.0934 -18.836 -8.66063 45.4014 -2.72132 -26.3786 12.2438 -24.0723 -18.9689 5.43637 166.087 62.2318 -157.847 4.8216 16.4197 -2.87606 43.1032 -44.61 37.4416 -27.4082 50.5982 13.3912 -21.4465 15.7946 3.05572 
143.392 11.9602 60.3954 -118.596 21.1862 -38.2298 -14.8373 44.3656 20.5167 -30.0271 -2.7418 -56.9905 5.99572 1.16188 -16.2022 -144.435 -83.5953 -152.444 -31.6055 26.3373 32.0737 50.5786 26.6552 15.3588 -18.7861 -8.60764 45.2513 -1.66217 -25.3458 13.1952 -24.3238 -19.5848 8.01198 167.776 59.0052 -159.341 2.5026 18.2162 1.0449 42.8316 -47.2934 37.3231 -29.2983 52.3263 14.8939 -18.282 12.953 1.44498 
145.301 11.4584 60.6144 -119.165 21.5282 -37.8713 -16.3046 46.5044 21.6598 -29.4763 -4.17076 -57.8269 7.92473 1.17195 -21.3185 -147.95 -82.0692 -159.056 -35.264 34.2802 34.579 51.2979 28.9294 21.2965 -18.8504 -8.67457 45.4423 -0.821705 -24.3122 13.9029 -24.2429 -20.7871 10.4961 168.649 56.971 -160.073 2.85809 23.2182 2.64129 43.6394 -50.0112 38.6931 -30.9124 53.7011 16.2107 -19.4787 13.3748 2.25896 
147.123 10.8656 60.6454 -118.81 22.4185 -38.3127 -19.2074 47.1743 22.1413 -28.6432 -6.30275 -56.5575 10.258 0.952735 -27.532 -145.58 -80.4704 -157.516 -38.0967 40.1232 37.0526 51.3529 32.8082 28.8777 -18.8055 -8.62781 45.3084 -0.921869 -22.22 14.3126 -23.9755 -22.3202 12.2595 169.057 55.877 -160.404 4.22529 29.1471 3.10277 46.8157 -52.034 43.0713 -32.5465 54.9601 17.5659 -20.1047 14.7011 1.91545 
